{"title":"Eleve Libre 2008 (private lessons) (2008) With English Subs","uid":9652717,"size":737963451,"categoryP":"video","categoryS":"movies","magnet":"?xt=urn:btih:af3422ca09f3e0f35aad7cd8136adbd2a87ca682&amp;dn=Eleve+Libre+2008+%28private+lessons%29+%282008%29+With+English+Subs&amp;tr=udp%3A%2F%2Ftracker.openbittorrent.com%3A80&amp;tr=udp%3A%2F%2Fopen.demonii.com%3A1337&amp;tr=udp%3A%2F%2Ftracker.coppersurfer.tk%3A6969&amp;tr=udp%3A%2F%2Fexodus.desync.com%3A6969","seeders":4,"leechers":0,"uploader":"jmanwf","files":-1,"time":1393122455,"description":"Storyline\n\nAn aspiring tennis player is taken under the wing of an established player as his family life falls apart.\n\n &lt;a href=&quot;\nhttp://postimg.org/image/truib5a29/&quot; rel=&quot;nofollow&quot; target=&quot;_NEW&quot;&gt;\nhttp://postimg.org/image/truib5a29/&lt;/a&gt;\n\n &lt;a href=&quot;\nhttp://postimg.org/image/kvjq77jg1/&quot; rel=&quot;nofollow&quot; target=&quot;_NEW&quot;&gt;\nhttp://postimg.org/image/kvjq77jg1/&lt;/a&gt;\n\n\n\nFormat                                   : AVI\nFormat/Info                              : Audio Video Interleave\nFile size                                : 704 MiB\nDuration                                 : 1h 43mn\nOverall bit rate                         : 950 Kbps\n\nVideo\nID                                       : 0\nFormat                                   : MPEG-4 Visual\nFormat profile                           : Advanced Simple@L5\nFormat settings, BVOP                    : 2\nFormat settings, QPel                    : No\nFormat settings, GMC                     : No warppoints\nFormat settings, Matrix                  : Default (MPEG)\nMuxing mode                              : Packed bitstream\nCodec ID                                 : XVID\nCodec ID/Hint                            : XviD\nDuration                                 : 1h 43mn\nBit rate                                 : 809 Kbps\nWidth                                    : 720 pixels\nHeight                                   : 304 pixels\nDisplay aspect ratio                     : 2.35:1\nFrame rate                               : 25.000 fps\nColor space                              : YUV\nChroma subsampling                       : 4:2:0\nBit depth                                : 8 bits\nScan type                                : Progressive\nCompression mode                         : Lossy\nBits/(Pixel*Frame)                       : 0.148\nStream size                              : 599 MiB (85%)\nTitle                                    : DVD3VIDEO\nWriting library                          : XviD 1.0.1 (UTC 2004-06-05)\n\nAudio\nID                                       : 1\nFormat                                   : MPEG Audio\nFormat version                           : Version 1\nFormat profile                           : Layer 3\nMode                                     : Joint stereo\nMode extension                           : MS Stereo\nCodec ID                                 : 55\nCodec ID/Hint                            : MP3\nDuration                                 : 1h 43mn\nBit rate mode                            : Constant\nBit rate                                 : 128 Kbps\nChannel(s)                               : 2 channels\nSampling rate                            : 48.0 KHz\nCompression mode                         : Lossy\nStream size                              : 94.8 MiB (13%)\nAlignment                                : Split accross interleaves\nInterleave, duration                     : 24 ms (0.60 video frame)\nTitle                                    : DVD3AUDIO00\n\n\n\n\nThis is the best quality i could find anyware\n","torrent":{"xt":"urn:btih:af3422ca09f3e0f35aad7cd8136adbd2a87ca682","amp;dn":"Eleve+Libre+2008+%28private+lessons%29+%282008%29+With+English+Subs","amp;tr":["udp%3A%2F%2Ftracker.openbittorrent.com%3A80","udp%3A%2F%2Fopen.demonii.com%3A1337","udp%3A%2F%2Ftracker.coppersurfer.tk%3A6969","udp%3A%2F%2Fexodus.desync.com%3A6969"],"infoHash":"af3422ca09f3e0f35aad7cd8136adbd2a87ca682","infoHashBuffer":{"type":"Buffer","data":[175,52,34,202,9,243,224,243,90,173,124,216,19,106,219,210,168,124,166,130]},"announce":[],"urlList":[]}}